<!-- Generator: Adobe Illustrator 21.0.0, SVG Export Plug-In  -->
<svg version="1.1"
	 xmlns="http://www.w3.org/2000/svg" xmlns:xlink="http://www.w3.org/1999/xlink" xmlns:a="http://ns.adobe.com/AdobeSVGViewerExtensions/3.0/"
	 x="0px" y="0px" width="32px" height="31.1px" viewBox="0 0 32 31.1" style="enable-background:new 0 0 32 31.1;"
	 xml:space="preserve">
<style type="text/css">
	.st0{fill:#4D308C;}
</style>
<defs>
</defs>
<path class="st0" d="M16,15c-2.2,0-4-0.7-5.4-2.1S8.5,9.7,8.5,7.5s0.7-4,2.1-5.4S13.8,0,16,0s4,0.7,5.4,2.1c1.4,1.4,2.1,3.2,2.1,5.4
	s-0.7,4-2.1,5.4C20,14.3,18.2,15,16,15z M0,31.1v-4.7c0-1.3,0.3-2.4,0.9-3.3s1.5-1.6,2.5-2c2.2-1,4.4-1.8,6.4-2.3s4.1-0.8,6.2-0.8
	s4.1,0.3,6.1,0.8c2,0.5,4.2,1.3,6.4,2.2c1,0.5,1.9,1.2,2.5,2c0.6,0.9,0.9,2,0.9,3.2v4.7H0z M3,28.1h26v-1.7c0-0.5-0.2-1-0.5-1.5
	c-0.3-0.5-0.7-0.8-1.2-1.1c-2.1-1-4.1-1.7-5.9-2.1c-1.8-0.4-3.6-0.6-5.5-0.6s-3.8,0.2-5.6,0.6s-3.7,1.1-5.8,2.1
	c-0.5,0.2-0.8,0.6-1.1,1.1c-0.3,0.5-0.5,1-0.5,1.5V28.1z M16,12c1.3,0,2.4-0.4,3.2-1.3c0.9-0.9,1.3-1.9,1.3-3.2s-0.4-2.4-1.3-3.2
	S17.3,3,16,3s-2.4,0.4-3.2,1.3c-0.9,0.8-1.3,1.9-1.3,3.2s0.4,2.4,1.3,3.2C13.6,11.6,14.7,12,16,12z"/>
</svg>
